<?xml version="1.0" standalone="no"?>
<!DOCTYPE svg PUBLIC "-//W3C//DTD SVG 20010904//EN"
 "http://www.w3.org/TR/2001/REC-SVG-20010904/DTD/svg10.dtd">
<svg version="1.0" xmlns="http://www.w3.org/2000/svg"
 width="1280.000000pt" height="1280.000000pt" viewBox="0 0 1280.000000 1280.000000"
 preserveAspectRatio="xMidYMid meet">
<g transform="translate(0.000000,1280.000000) scale(0.100000,-0.100000)"
fill="#000000" stroke="none">
<path d="M6331 12772 c-42 -21 -60 -37 -78 -71 -23 -43 -23 -50 -23 -327 0
-156 -4 -285 -8 -288 -5 -3 -80 -10 -168 -16 -1093 -73 -2077 -421 -2958
-1048 -807 -573 -1480 -1394 -1882 -2295 -281 -630 -438 -1266 -487 -1972
l-12 -180 -290 -5 c-183 -3 -299 -10 -315 -17 -37 -16 -76 -62 -95 -110 -16
-40 -16 -46 0 -85 17 -44 55 -91 90 -111 13 -8 117 -14 315 -17 l295 -5 12
-175 c54 -777 232 -1454 562 -2135 499 -1028 1303 -1885 2306 -2457 713 -407
1532 -658 2340 -719 83 -6 182 -14 220 -17 l70 -7 5 -295 c5 -285 6 -296 28
-331 14 -24 42 -47 77 -64 52 -27 57 -28 97 -14 50 16 93 50 116 93 15 27 17
70 20 316 2 157 6 288 10 292 4 4 81 12 172 18 766 51 1448 231 2128 561 1031
500 1866 1280 2454 2294 421 725 694 1646 734 2470 4 77 11 148 16 158 8 16
32 17 281 17 150 0 288 5 307 10 45 12 93 62 115 117 16 40 16 45 0 87 -20 52
-66 99 -114 115 -22 7 -131 11 -312 11 l-279 0 -4 23 c-3 12 -7 82 -11 156
-36 810 -307 1723 -727 2454 -809 1409 -2140 2393 -3705 2741 -327 73 -535
101 -975 132 l-87 6 -3 291 c-3 319 -5 330 -65 377 -29 23 -88 50 -107 50 -6
0 -35 -13 -65 -28z m-103 -2101 c1 -469 -1 -708 -8 -716 -6 -7 -50 -15 -103
-19 -1510 -114 -2802 -1209 -3162 -2680 -51 -209 -95 -491 -95 -611 0 -27 -4
-56 -8 -63 -7 -10 -158 -12 -723 -10 l-714 3 3 95 c8 232 55 578 116 840 219
941 665 1742 1350 2425 699 697 1573 1164 2546 1358 249 50 549 86 700 83 l95
-1 3 -704z m772 680 c758 -95 1474 -354 2100 -760 943 -611 1657 -1524 2016
-2576 148 -432 252 -967 257 -1330 l2 -110 -715 0 -715 0 -6 55 c-4 30 -12
107 -19 170 -89 861 -522 1688 -1190 2271 -592 517 -1300 808 -2120 871 l-35
3 -3 719 -2 719 137 -6 c76 -4 208 -15 293 -26z m-786 -2107 c14 -6 16 -72 16
-650 l0 -644 -22 -9 c-13 -5 -65 -16 -116 -25 -312 -56 -646 -248 -858 -494
-186 -217 -303 -457 -357 -736 l-22 -111 -648 -3 c-565 -2 -648 0 -653 13 -9
21 14 210 43 359 82 428 259 823 531 1185 102 136 357 397 492 503 429 339
934 546 1480 607 41 5 80 9 87 10 6 0 18 -2 27 -5z m556 -15 c1056 -131 1970
-877 2325 -1899 74 -213 145 -557 145 -702 l0 -58 -650 0 -650 0 -5 23 c-2 12
-9 51 -15 86 -71 414 -347 816 -715 1041 -178 109 -354 172 -597 214 l-38 7 0
648 c0 356 3 651 7 654 7 7 36 5 193 -14z m-3922 -3011 c7 -7 12 -35 12 -63 0
-28 7 -104 15 -170 84 -678 332 -1269 756 -1805 105 -133 403 -433 534 -536
568 -451 1207 -711 1905 -775 74 -6 141 -16 148 -22 9 -7 12 -158 10 -716 l-3
-706 -60 -3 c-179 -11 -615 51 -952 133 -1226 301 -2281 1045 -2976 2099 -485
733 -754 1529 -817 2416 -6 78 -8 146 -4 151 9 15 1417 12 1432 -3z m2029
-104 c108 -554 490 -995 1018 -1177 55 -19 143 -42 195 -52 52 -9 105 -21 118
-26 l22 -9 0 -639 c0 -499 -3 -641 -12 -649 -29 -23 -386 32 -595 92 -184 53
-301 99 -488 190 -273 134 -502 296 -724 511 -421 408 -698 916 -811 1485 -31
159 -55 352 -46 375 5 13 88 15 653 13 l648 -3 22 -111z m4361 62 c4 -59 -31
-293 -64 -433 -262 -1110 -1181 -1970 -2305 -2157 -112 -19 -281 -36 -291 -29
-5 2 -8 296 -8 653 l0 649 38 7 c175 30 310 69 437 128 445 206 780 631 870
1106 9 47 18 95 21 108 l4 22 648 -2 647 -3 3 -49z m2135 -61 c-5 -359 -107
-892 -252 -1315 -599 -1761 -2128 -3046 -3961 -3330 -167 -26 -414 -50 -511
-50 l-79 0 2 718 3 717 135 13 c1074 99 2018 655 2623 1543 350 513 540 1063
603 1734 3 39 8 73 11 78 2 4 325 6 716 5 l712 -3 -2 -110z"/>
</g>
</svg>
